# xmcd CD database file
#
# Track frame offsets:
#	182
#	12915
#	27480
#	41687
#	53522
#	66445
#	78545
#	93157
#	107295
#	122187
#	135772
#	151170
#	165545
#	180142
#	200550
#	215250
#	227225
#	245657
#	259777
#	273180
#	286685
#	299972
#
# Disc length: 4157 seconds
#
# Revision: 3
# Processed by: cddbd v1.5.2PL0 Copyright (c) Steve Scherf et al.
# Submitted via: CDex 1.70beta2
#
DISCID=2d103b16
DTITLE=Ella Fitzgerald - Big Boy Blue
DYEAR=1900
DGENRE=Jazz
TTITLE0=Big Boy Blue
TTITLE1=Dedicated to You
TTITLE2=You Showed Me the Way
TTITLE3=Crying Mood
TTITLE4=Love Is the Thing So They Say
TTITLE5=All Over Nothing at All
TTITLE6=If You Ever Should Leave
TTITLE7=Everyone's Wrong But Me
TTITLE8=Deep in the Heart of the South
TTITLE9=Just a Simple Melody
TTITLE10=I Got a Guy
TTITLE11=Holiday in Harlem
TTITLE12=Rock It for Me
TTITLE13=I Want to Be Happy
TTITLE14=The Dipsy Doodle
TTITLE15=If Dreams Come True
TTITLE16=Hallelujah!
TTITLE17=Bei Mir Bist Du Schoen
TTITLE18=It's My Turn Now
TTITLE19=It's Wonderful
TTITLE20=I Was Doing All Right
TTITLE21=A-Tisket, A-Tasket
EXTD=
EXTT0=
EXTT1=
EXTT2=
EXTT3=
EXTT4=
EXTT5=
EXTT6=
EXTT7=
EXTT8=
EXTT9=
EXTT10=
EXTT11=
EXTT12=
EXTT13=
EXTT14=
EXTT15=
EXTT16=
EXTT17=
EXTT18=
EXTT19=
EXTT20=
EXTT21=
PLAYORDER=
